<svg width="60" height="60" fill="none" xmlns="http://www.w3.org/2000/svg"><g clip-path="url(#clip0)" fill-rule="evenodd" clip-rule="evenodd" fill="#666D89"><path d="M30.387.002l.194.003.386.01.385.014.192.01.382.022.191.012.192.014.19.016.19.016.189.017.19.019.376.04.189.023.188.023.188.024.187.026.186.026.372.057.186.03.186.032.184.033.185.033.184.035.184.036.183.036.183.039.182.038.364.082.181.043.181.043.18.045.18.046.18.047.179.047.179.05.178.049.178.05.354.107.176.053.352.112.174.058.174.058.348.12.346.124.344.128.341.133.34.136.338.14.168.072.166.073.168.074.166.074.166.075.165.078.165.077.164.078.163.08.164.08.162.081.163.083.16.083.162.084.16.086.319.173.159.088.157.089.158.09.157.09.155.092.156.093.155.093.154.095.154.095.153.096.152.098.152.097.152.1.15.099.15.1.15.102.149.103.147.103.148.104.146.105.146.106.146.107.289.215.143.11.142.11.143.11.141.113.28.225.14.114.138.116.275.232.273.236.135.119.134.12.267.242.263.245.13.124.13.125.13.125.128.126.128.127.126.128.126.128.125.129.125.13.124.13.245.264.242.266.12.134.12.136.235.272.232.275.116.138.114.14.225.28.112.141.111.143.11.142.11.143.215.29.107.145.106.146.105.147.104.147.103.147.103.15.102.149.1.15.1.15.099.152.097.152.098.152.096.153.095.154.095.154.093.155.093.156.091.155.092.157.09.158.088.157.088.159.173.32.086.159.084.162.083.16.083.163.081.162.08.163.08.164.078.164.077.165.078.165.075.166.074.166.074.168.073.167.072.167.14.338.136.34.133.341.128.344.124.346.12.348.058.174.058.174.112.352.053.176.106.354.051.178.05.178.049.18.047.178.047.18.046.18.045.18.044.181.042.181.082.364.038.182.039.183.037.183.035.184.035.184.033.184.033.186.031.185.03.186.058.372.026.186.026.187.024.188.023.189.023.188.04.377.019.19.017.188.016.19.016.19.014.192.012.19.022.383.01.192.014.385.01.386.003.194L60 30l-.002.387-.003.194-.01.386-.014.385-.01.192-.022.382-.012.191-.014.192-.016.19-.016.19-.017.189-.018.19-.041.376-.023.189-.023.188-.024.188-.026.187-.026.186-.057.372-.03.186-.032.186-.033.184-.033.185-.035.184-.035.184-.037.183-.039.183-.038.182-.082.364-.042.181-.044.181-.045.18-.046.18-.047.18-.047.179-.05.179-.049.178-.05.178-.106.354-.054.176-.112.352-.058.174-.058.174-.12.348-.124.346-.128.344-.133.341-.136.34-.14.338-.072.168-.073.166-.074.168-.074.166-.075.166-.078.165-.077.165-.078.164-.08.163-.08.164-.081.162-.083.163-.083.16-.084.162-.086.16-.173.319-.088.159-.089.157-.09.158-.09.157-.092.155-.093.156-.093.155-.095.154-.094.154-.097.153-.098.152-.097.152-.099.152-.1.15-.1.15-.102.15-.103.149-.102.147-.105.148-.105.146-.106.146-.106.146-.216.289-.11.143-.11.142-.11.143-.112.141-.226.28-.114.14-.116.138-.232.275-.236.273-.119.135-.12.134-.242.267-.245.263-.124.13-.125.13-.125.13-.252.256-.257.252-.129.125-.13.125-.13.124-.264.245-.266.242-.134.12-.136.12-.272.235-.275.232-.138.116-.14.114-.28.225-.141.112-.143.111-.142.11-.143.11-.29.215-.145.107-.146.106-.146.105-.148.104-.147.103-.15.103-.148.102-.15.1-.151.1-.152.099-.151.097-.153.098-.153.096-.154.095-.154.095-.155.093-.156.093-.155.091-.157.092-.158.09-.157.088-.159.088-.32.173-.159.086-.162.084-.16.083-.163.083-.162.081-.163.08-.164.08-.164.078-.165.077-.165.078-.166.075-.166.074-.168.074-.166.073-.168.072-.338.14-.34.136-.341.133-.344.128-.346.124-.348.12-.174.058-.174.058-.352.112-.176.053-.354.106-.178.051-.178.05-.179.049-.179.047-.18.047-.18.046-.18.045-.181.044-.181.042-.364.082-.182.038-.183.039-.183.037-.184.035-.184.035-.184.033-.185.033-.186.031-.186.03-.372.058-.186.026-.187.026-.188.024-.188.023-.189.023-.377.04-.189.019-.19.017-.19.016-.19.016-.19.014-.192.012-.382.022-.192.01-.385.014-.386.01-.194.003L30 60l-.387-.002-.194-.003-.386-.01-.385-.014-.192-.01-.382-.022-.191-.012-.191-.014-.19-.016-.19-.016-.19-.017-.19-.018-.376-.041-.189-.023-.188-.023-.188-.024-.187-.026-.186-.026-.372-.057-.186-.03-.185-.032-.186-.033-.183-.033-.185-.035-.184-.035-.183-.037-.183-.039-.182-.038-.364-.082-.18-.042-.182-.044-.18-.045-.18-.046-.18-.047-.179-.047-.179-.05-.178-.049-.178-.05-.354-.106-.176-.054-.352-.112-.174-.058-.174-.058-.348-.12-.346-.124-.344-.128-.341-.133-.34-.136-.338-.14-.167-.072-.167-.073-.168-.074-.166-.074-.166-.075-.165-.078-.165-.077-.164-.078-.163-.08-.164-.08-.162-.081-.163-.083-.16-.083-.162-.084-.16-.086-.319-.173-.159-.088-.157-.089-.158-.09-.156-.09-.156-.092-.156-.093-.155-.093-.154-.095-.154-.094-.153-.097-.152-.098-.152-.097-.152-.099-.15-.1-.15-.1-.149-.102-.15-.103-.147-.102-.147-.105-.147-.105-.146-.106-.146-.106-.289-.216-.143-.11-.142-.11-.143-.11-.141-.112-.28-.226-.14-.114-.138-.116-.275-.232-.272-.236-.136-.119-.134-.12-.266-.242-.264-.245-.13-.124-.13-.125-.13-.125-.127-.126-.128-.126-.127-.128-.126-.129-.125-.129-.125-.13-.124-.13-.245-.264-.242-.266-.12-.134-.12-.136-.235-.272-.232-.275-.116-.138-.114-.14-.225-.28-.112-.141-.111-.143-.11-.142-.11-.143-.215-.29-.107-.145-.106-.146-.105-.146-.104-.148-.103-.147-.103-.15-.102-.148-.1-.15-.1-.151-.099-.152-.097-.151-.098-.153-.096-.153-.095-.154-.095-.154-.093-.155-.093-.156-.091-.155-.092-.157-.09-.158-.088-.157-.088-.159-.173-.32-.086-.159-.084-.162-.083-.16-.083-.163-.081-.162-.08-.163-.08-.164-.078-.164-.077-.165-.078-.165-.075-.166-.074-.166-.074-.168-.073-.166-.072-.168-.14-.338-.136-.34-.133-.341-.128-.344-.124-.346-.12-.348-.058-.174-.058-.174-.112-.352-.053-.176-.106-.354-.051-.178-.05-.178-.049-.179-.047-.179-.047-.18-.046-.18-.045-.18-.043-.181-.043-.181-.082-.364-.038-.182-.039-.183-.036-.183-.036-.184-.035-.184-.033-.184-.033-.185-.031-.186-.03-.186-.058-.372-.026-.186-.026-.187-.024-.188-.023-.188-.023-.189-.04-.377-.019-.189-.017-.19-.016-.19-.016-.19-.014-.19-.012-.192-.022-.382-.01-.192-.014-.385-.01-.386-.003-.194L0 30l.002-.387.003-.194.01-.386.014-.385.01-.192.022-.382.012-.191.014-.191.016-.19.016-.19.017-.19.019-.19.04-.376.023-.189.023-.188.024-.188.026-.187.026-.186.057-.372.03-.186.032-.185.033-.186.033-.184.035-.184.036-.184.036-.183.039-.183.038-.182.082-.364.043-.18.043-.182.045-.18.046-.18.047-.18.047-.179.05-.179.049-.178.05-.178.107-.354.053-.176.112-.352.058-.174.058-.174.12-.348.124-.346.128-.344.133-.341.136-.34.14-.338.072-.167.073-.167.074-.168.074-.166.075-.166.078-.165.077-.165.078-.164.08-.163.08-.164.081-.162.083-.163.083-.16.084-.162.086-.16.173-.319.088-.159.089-.157.09-.158.09-.156.092-.156.093-.156.093-.155.095-.154.095-.154.096-.153.098-.152.097-.152.1-.152.099-.15.1-.15.102-.149.103-.15.103-.147.104-.147.105-.147.106-.146.107-.146.215-.289.11-.143.11-.142.11-.143.113-.141.225-.28.114-.14.116-.138.232-.275.236-.272.119-.136.12-.134.242-.266.245-.264.124-.13.125-.13.125-.13.126-.127.255-.255.128-.126.129-.125.13-.125.13-.124.264-.245.266-.242.134-.12.136-.12.272-.235.275-.232.138-.116.14-.114.28-.225.141-.112.143-.111.142-.11.143-.11.29-.215.145-.107.146-.106.147-.105.147-.104.147-.103.15-.103.149-.102.15-.1.15-.1.152-.099.152-.097.152-.098.153-.096.154-.095.154-.095.155-.093.156-.093.155-.091.157-.092.158-.09.157-.088.159-.088.32-.173.159-.086.162-.084.16-.083.163-.083.162-.081.163-.08.164-.08.164-.078.165-.077.165-.078.166-.075.166-.074.168-.074.167-.073.167-.072.338-.14.34-.136.341-.133.344-.128.346-.124.348-.12.174-.058.174-.058.352-.112.176-.053.354-.106.178-.051.178-.05.18-.049.178-.047.18-.047.18-.046.18-.045.181-.043.181-.043.364-.082.182-.038.183-.039.183-.036.184-.036.184-.035.184-.033.186-.033.185-.031.186-.03.372-.058.186-.026.187-.026.188-.024.189-.023.188-.023.377-.04.19-.019.188-.017.19-.016.19-.016.192-.014.19-.012.383-.022.192-.01.385-.014.386-.01.194-.003L30 0l.387.002zm-.749 2.034l-.18.003-.181.004-.18.005-.179.006-.18.007-.358.019-.178.01-.356.025-.177.014-.178.016-.177.016-.176.017-.176.019-.175.019-.351.043-.175.022-.35.049-.172.026-.347.055-.173.03-.343.06-.172.033-.171.034-.17.034-.172.036-.17.036-.17.037-.168.039-.17.04-.168.04-.168.042-.168.043-.166.043-.168.044-.166.046-.166.047-.165.047-.166.05-.165.048-.164.05-.327.105-.163.053-.325.11-.162.056-.321.116-.16.06-.32.121-.159.062-.159.063-.157.064-.158.065-.156.066-.157.067-.157.068-.155.068-.155.07-.309.141-.154.073-.152.073-.305.148-.152.077-.15.076-.15.078-.15.078-.15.08-.15.08-.147.081-.148.082-.146.083-.148.084-.145.084-.146.086-.145.086-.145.087-.144.089-.142.088-.144.09-.142.09-.142.092-.28.185-.14.093-.14.096-.138.095-.138.096-.138.098-.136.098-.136.098-.137.1-.134.1-.268.203-.133.103-.265.207-.131.105-.13.106-.13.106-.13.108-.128.108-.128.109-.127.109-.252.221-.125.112-.125.113-.124.113-.123.114-.122.115-.123.116-.12.116-.122.117-.119.117-.237.237-.117.12-.117.12-.116.121-.116.123-.115.122-.114.123-.113.124-.113.125-.112.125-.221.252-.11.127-.108.128-.108.128-.108.13-.106.13-.106.13-.105.131-.207.264-.103.134-.204.268-.1.134-.099.137-.098.136-.098.136-.098.138-.096.138-.095.138-.096.14-.093.14-.185.28-.092.142-.09.142-.09.144-.088.142-.089.144-.087.145-.086.145-.086.146-.084.145-.084.148-.083.146-.082.148-.08.148-.081.15-.08.149-.078.15-.078.15-.076.15-.077.152-.148.305-.073.152-.073.154-.142.31-.07.154-.067.155-.068.157-.067.157-.066.156-.065.158-.064.157-.063.16-.062.158-.122.32-.059.16-.116.321-.056.162-.11.325-.053.163-.104.327-.051.164-.049.165-.049.166-.047.165-.047.166-.046.166-.044.168-.043.166-.043.168-.042.168-.04.169-.04.169-.039.169-.037.17-.036.17-.036.17-.034.17-.034.172-.032.172-.061.343-.03.173-.055.347-.026.173-.049.349-.022.175-.043.35-.02.176-.018.176-.017.176-.016.177-.016.178-.014.177-.024.356-.011.178-.019.358-.007.18-.006.179-.005.18-.004.181-.003.18-.002.362.002.362.003.18.004.181.005.18.006.18.007.18.019.357.01.178.025.356.014.177.016.178.016.177.017.176.019.176.019.176.043.35.022.175.049.35.026.172.055.347.03.173.06.343.033.172.034.171.034.171.036.17.036.17.037.17.039.17.04.168.04.169.042.168.043.167.043.167.044.168.046.166.047.166.047.165.05.166.048.165.05.164.105.327.107.325.056.163.056.162.116.321.06.161.121.32.062.158.063.159.064.157.065.158.066.156.067.157.068.157.068.155.07.155.141.309.073.154.073.152.148.305.077.152.076.15.078.15.078.15.08.15.08.15.081.147.082.148.083.147.084.147.084.145.086.146.086.145.087.145.089.144.088.142.09.144.09.142.092.142.185.28.093.14.096.14.095.138.096.139.098.137.098.136.098.136.1.137.1.134.203.268.103.134.207.264.105.131.106.13.106.13.108.13.108.128.109.128.109.127.221.252.112.125.113.125.113.125.114.123.115.122.116.122.116.12.117.122.117.119.237.238.12.117.12.116.121.116.123.116.122.115.123.114.124.113.125.113.125.112.126.11.126.11.127.11.128.11.128.107.13.108.13.106.13.106.131.105.264.207.134.103.268.204.134.1.137.099.136.099.136.097.138.098.138.096.138.095.14.096.14.093.28.185.142.092.142.09.144.09.142.088.144.089.145.087.145.086.146.086.145.084.148.084.146.083.148.082.148.08.15.081.149.08.15.078.15.078.15.076.152.077.305.148.152.073.154.073.31.142.154.07.155.067.157.068.157.068.156.065.158.065.157.064.16.063.158.062.32.122.16.059.321.116.162.056.325.11.163.053.327.104.164.051.165.049.166.049.165.048.166.046.166.046.168.044.166.044.168.042.168.042.169.04.169.04.169.039.17.038.17.035.17.036.17.034.172.034.172.032.343.061.173.03.347.055.173.026.349.049.175.022.35.043.176.02.176.018.176.017.177.016.178.016.177.014.356.024.178.011.358.019.18.007.179.006.18.005.181.004.18.003.362.002.362-.002.18-.003.181-.004.18-.005.18-.006.18-.007.357-.019.178-.01.356-.025.177-.014.178-.016.177-.016.176-.017.176-.019.176-.019.35-.043.175-.022.35-.049.172-.026.347-.055.173-.03.343-.06.172-.033.171-.034.171-.034.17-.036.17-.035.17-.038.17-.039.168-.04.169-.04.168-.042.167-.042.167-.044.168-.044.166-.046.166-.046.165-.048.166-.05.165-.048.164-.05.327-.105.163-.053.325-.11.162-.056.321-.116.161-.06.32-.121.158-.062.159-.063.157-.064.158-.065.157-.066.156-.067.157-.068.155-.068.155-.069.309-.142.154-.073.152-.073.305-.148.152-.077.15-.076.15-.078.15-.078.15-.08.15-.08.147-.081.148-.082.147-.083.147-.084.146-.084.145-.086.145-.086.145-.087.144-.089.142-.088.144-.09.142-.09.142-.092.28-.185.14-.093.14-.096.138-.095.139-.096.137-.098.136-.098.136-.098.137-.1.134-.1.268-.203.134-.102.264-.208.131-.105.13-.105.13-.107.13-.108.128-.108.128-.109.127-.11.126-.11.126-.11.125-.112.125-.113.125-.113.123-.114.122-.115.122-.116.12-.116.122-.116.119-.117.238-.238.117-.12.116-.12.116-.121.116-.122.115-.122.114-.123.113-.125.113-.125.112-.125.11-.126.11-.126.11-.127.11-.128.107-.128.108-.13.106-.13.106-.13.105-.131.207-.264.103-.134.204-.268.1-.134.099-.137.099-.136.097-.136.098-.137.096-.139.095-.138.096-.14.093-.14.185-.28.092-.142.09-.142.09-.144.088-.142.089-.144.087-.145.086-.145.086-.146.084-.145.084-.147.083-.147.082-.148.08-.148.081-.15.08-.149.078-.15.078-.15.076-.15.077-.152.148-.305.073-.152.073-.154.142-.31.07-.154.067-.155.068-.157.068-.157.065-.156.065-.158.064-.157.063-.16.062-.158.122-.319.059-.16.116-.322.056-.162.11-.325.053-.163.104-.327.051-.164.049-.165.049-.166.048-.165.046-.166.046-.166.044-.168.044-.166.042-.168.042-.168.04-.169.04-.169.039-.169.038-.17.035-.17.036-.17.034-.17.034-.172.032-.172.061-.343.03-.173.055-.347.026-.173.049-.349.022-.175.043-.35.02-.176.018-.176.017-.176.016-.177.016-.178.014-.177.024-.356.011-.178.019-.358.007-.18.006-.179.005-.18.004-.18.003-.18.002-.363-.002-.362-.003-.18-.004-.181-.005-.18-.006-.179-.007-.18-.019-.358-.01-.178-.025-.356-.014-.177-.016-.178-.016-.177-.017-.176-.019-.176-.019-.175-.043-.351-.022-.175-.049-.35-.026-.172-.055-.347-.03-.173-.06-.343-.033-.172-.034-.171-.034-.17-.036-.172-.035-.17-.038-.17-.039-.168-.04-.17-.04-.168-.042-.168-.042-.168-.044-.166-.044-.168-.046-.166-.046-.166-.048-.165-.05-.166-.048-.165-.05-.164-.105-.327-.053-.163-.11-.325-.056-.162-.116-.321-.06-.16-.121-.32-.062-.159-.063-.159-.064-.157-.065-.158-.065-.156-.068-.157-.068-.157-.068-.155-.069-.155-.142-.309-.073-.154-.073-.152-.148-.305-.077-.152-.076-.15-.078-.15-.078-.15-.08-.15-.08-.15-.081-.147-.082-.148-.083-.146-.084-.148-.084-.145-.086-.146-.086-.145-.087-.145-.089-.144-.088-.142-.09-.144-.09-.142-.092-.142-.185-.28-.093-.14-.096-.14-.095-.138-.096-.138-.098-.138-.098-.136-.098-.136-.1-.137-.1-.134-.203-.268-.102-.133-.208-.265-.105-.131-.105-.13-.107-.13-.108-.13-.108-.128-.109-.128-.11-.127-.11-.126-.11-.126-.112-.125-.113-.125-.113-.124-.114-.123-.115-.122-.116-.123-.116-.12-.116-.122-.117-.119-.238-.237-.12-.117-.12-.117-.121-.116-.122-.116-.122-.115-.123-.114-.125-.113-.125-.113-.125-.112-.252-.221-.127-.11-.128-.108-.128-.108-.13-.108-.13-.106-.13-.106-.131-.105-.264-.207-.134-.103-.268-.204-.134-.1-.137-.099-.136-.098-.136-.098-.137-.098L45.912 7l-.138-.095-.14-.096-.14-.093-.28-.185-.142-.092-.142-.09-.144-.09-.142-.088-.144-.089-.145-.087-.145-.086-.145-.086-.146-.084-.147-.084-.147-.083-.148-.082-.148-.08-.15-.081-.149-.08-.15-.078-.15-.078-.15-.076-.152-.077-.305-.148-.152-.073-.154-.073-.31-.142-.154-.07-.155-.067-.157-.068-.156-.067-.157-.066-.158-.065-.157-.064-.16-.063-.158-.062-.319-.122-.16-.059-.322-.116-.162-.056-.163-.056-.325-.107-.327-.104-.164-.051-.165-.049-.166-.049-.165-.047-.166-.047-.166-.046-.168-.044-.166-.043-.168-.043-.168-.042-.169-.04-.169-.04-.169-.039-.17-.037-.17-.036-.17-.036-.17-.034-.172-.034-.172-.032-.343-.061-.173-.03-.347-.055-.173-.026-.349-.049-.175-.022-.35-.043-.176-.02-.176-.018-.176-.017-.177-.016-.178-.016-.177-.014-.356-.024-.178-.011-.358-.019-.18-.007-.179-.006-.18-.005-.18-.004-.18-.003L30 2.034l-.362.002z"/><path d="M43.396 16.58C41.75 14.938 39.585 14 37.449 14c-1.8 0-3.459.668-4.669 1.877l-4.867 4.904c-.015.014-.032.024-.047.038-.008.008-.012.019-.02.027l.002.002-10.33 10.408a4.013 4.013 0 00-1.013 1.705l-2.349 8.508c-.003.023-.156.692-.156 1.031 0 1.933 1.569 3.5 3.505 3.5.385 0 1.13-.183 1.157-.187l8.478-2.229a4.027 4.027 0 001.705-1.016l15.262-15.382c2.777-2.78 2.464-7.436-.711-10.606zM30.015 37.796a8.144 8.144 0 00-.719-2.628l9.454-9.453c.578 1.826.282 3.736-.985 5.004-.008.008-.018.012-.026.02l.013.013-7.728 7.789c.001-.248.013-.492-.009-.745zm-1.221-3.54c-.373-.613-.797-1.204-1.322-1.728-.612-.612-1.313-1.09-2.044-1.493l9.532-9.531a6.965 6.965 0 012.098 1.437 6.99 6.99 0 011.28 1.771l-9.544 9.544zm-4.308-3.693a7.972 7.972 0 00-2.868-.599l7.703-7.762c1.179-1.15 2.897-1.481 4.588-1.061l-9.423 9.422zm-6.318 13.31c-.109.026-.448.112-.679.127A1.505 1.505 0 0116 42.5c.012-.167.079-.456.102-.563l1.052-3.814c1.143-.031 2.373.414 3.34 1.383.983.981 1.445 2.235 1.394 3.391l-3.72.976zm4.706-1.236c-.024-1.341-.57-2.737-1.672-3.837-1.042-1.044-2.405-1.646-3.765-1.699l.996-3.608c.072-.24.214-.476.39-.684 2.006-1.436 5.091-1.012 7.235 1.133 2.266 2.266 2.617 5.586.871 7.568-.116.06-.234.119-.36.157l-3.695.97zm19.818-16.864l-1.684 1.697c0-.226.027-.443.007-.674-.176-1.935-1.079-3.806-2.543-5.269-1.629-1.629-3.79-2.565-5.929-2.571l1.657-1.67c.827-.827 1.984-1.286 3.249-1.286 1.611 0 3.263.728 4.533 1.995 1.194 1.191 1.906 2.671 2.006 4.168.094 1.398-.366 2.679-1.296 3.61z"/></g><defs><clipPath id="clip0"><path fill="#fff" d="M0 0h60v60H0z"/></clipPath></defs></svg>