<svg width="60" height="60" fill="none" xmlns="http://www.w3.org/2000/svg"><g clip-path="url(#clip0)" fill-rule="evenodd" clip-rule="evenodd" fill="#666D89"><path d="M30.194.001l.194.001.193.003.193.005.193.005.192.007.193.007.192.01.191.01.191.012.191.012.192.014.19.016.19.016.189.017.19.019.188.02.188.02.189.023.188.023.188.024.187.026.186.026.186.029.186.028.186.03.186.032.184.033.185.033.184.035.184.036.183.036.183.039.182.038.182.041.182.04.181.044.181.043.18.045.18.046.18.047.179.047.179.05.178.049.178.05.177.054.177.053.176.053.176.056.176.056.174.058.174.058.174.06.174.06.173.062.173.062.172.064.172.064.17.067.171.066.17.068.17.068.169.07.169.07.168.072.166.073.168.074.166.074.166.075.165.078.165.077.164.078.163.08.164.08.162.081.163.083.16.083.162.084.16.086.16.086.159.087.159.088.157.089.158.09.157.09.155.092.156.093.155.093.154.095.154.095.153.096.152.098.152.097.152.1.15.099.15.1.15.102.149.103.147.103.148.104.146.105.146.106.146.107.144.107.145.108.143.11.142.11.143.11.141.113.14.112.14.113.14.114.138.116.138.116.137.116.136.118.137.118.135.119.134.12.133.12.133.122.132.122.132.123.13.124.13.125.13.125.128.126.128.127.126.128.126.128.125.129.125.13.124.13.123.132.122.132.121.133.121.133.12.134.12.136.117.136.118.136.116.137.116.138.116.138.114.14.113.14.112.14.112.141.111.143.11.142.11.143.108.145.108.144.106.146.106.146.105.147.104.147.103.147.103.15.102.149.1.15.1.15.099.152.097.152.098.152.096.153.095.154.095.154.093.155.093.156.091.155.092.157.09.158.088.157.088.159.087.16.086.16.086.159.084.162.083.16.083.163.081.162.08.163.08.164.078.164.077.165.078.165.075.166.074.166.074.168.073.167.072.167.07.17.07.168.068.17.068.17.067.17.066.171.064.172.064.172.062.173.062.173.06.174.06.174.058.174.058.174.056.176.056.176.053.176.053.177.053.177.051.178.05.178.049.18.047.178.047.18.046.18.045.18.044.181.042.181.04.182.042.182.038.182.039.183.037.183.035.184.035.184.033.184.033.186.031.185.03.186.03.186.028.186.026.186.026.187.024.188.023.189.023.188.02.188.02.189.019.19.017.188.016.19.016.19.014.192.012.19.011.192.011.191.01.192.007.193.007.192.005.193.005.193.003.194.001.193L60 30l-.001.194-.001.194-.003.193-.005.193-.005.193-.007.192-.007.193-.01.192-.01.19-.012.192-.012.191-.014.192-.016.19-.016.19-.017.189-.018.19-.02.188-.021.188-.023.189-.023.188-.024.188-.026.187-.026.186-.029.186-.028.186-.03.186-.032.186-.033.184-.033.185-.035.184-.035.184-.037.183-.039.183-.038.182-.041.182-.04.182-.043.181-.044.181-.045.18-.046.18-.047.18-.047.179-.05.179-.049.178-.05.178-.054.177-.053.177-.053.176-.056.176-.056.176-.058.174-.058.174-.06.174-.06.174-.062.173-.062.173-.064.172-.064.172-.066.17-.067.171-.068.17-.068.17-.07.169-.07.169-.072.168-.073.166-.074.168-.074.166-.075.166-.078.165-.077.165-.078.164-.08.163-.08.164-.081.162-.083.163-.083.16-.084.162-.086.16-.086.16-.087.159-.088.159-.089.157-.09.158-.09.157-.092.155-.093.156-.093.155-.095.154-.094.154-.097.153-.098.152-.097.152-.099.152-.1.15-.1.15-.102.15-.103.149-.102.147-.105.148-.105.146-.106.146-.106.146-.108.144-.108.145-.11.143-.11.142-.11.143-.112.141-.113.14-.113.14-.114.14-.116.138-.116.138-.116.137-.118.136-.118.137-.119.135-.12.134-.12.133-.122.133-.122.132-.123.132-.124.13-.125.13-.125.13-.126.128-.126.128-.128.126-.129.126-.129.125-.13.125-.13.124-.132.123-.132.122-.133.121-.133.121-.134.12-.136.12-.136.117-.136.118-.137.116-.138.116-.138.116-.14.114-.14.113-.14.112-.141.112-.143.111-.142.11-.143.11-.145.108-.144.108-.146.106-.146.106-.146.105-.148.104-.147.103-.15.103-.148.102-.15.1-.151.1-.152.099-.151.097-.153.098-.153.096-.154.095-.154.095-.155.093-.156.093-.155.091-.157.092-.158.09-.157.088-.159.088-.16.087-.16.086-.159.086-.162.084-.16.083-.163.083-.162.081-.163.08-.164.08-.164.078-.165.077-.165.078-.166.075-.166.074-.168.074-.166.073-.168.072-.17.07-.168.07-.17.068-.17.068-.17.067-.171.066-.172.064-.172.064-.173.062-.173.062-.174.06-.174.06-.174.058-.174.058-.176.056-.176.056-.176.053-.177.053-.177.053-.178.051-.178.05-.179.049-.179.047-.18.047-.18.046-.18.045-.181.044-.181.042-.182.04-.182.042-.182.038-.183.039-.183.037-.184.035-.184.035-.184.033-.185.033-.186.031-.186.03-.186.03-.186.028-.186.026-.187.026-.188.024-.188.023-.189.023-.188.02-.189.02-.189.019-.19.017-.19.016-.19.016-.19.014-.192.012-.191.011-.191.011-.192.01-.193.007-.192.007-.193.005-.193.005-.194.003-.193.001L30 60 29.806 60l-.193-.001-.194-.003-.193-.005-.193-.005-.192-.007-.193-.007-.192-.01-.19-.01-.192-.012-.191-.012-.191-.014-.19-.016-.19-.016-.19-.017-.19-.018-.188-.02-.188-.021-.189-.023-.188-.023-.188-.024-.187-.026-.186-.026-.186-.029-.186-.028-.186-.03-.185-.032-.186-.033-.183-.033-.185-.035-.184-.035-.183-.037-.183-.039-.182-.038-.182-.041-.182-.04-.18-.043-.182-.044-.18-.045-.18-.046-.18-.047-.179-.047-.179-.05-.178-.049-.178-.05-.177-.054-.177-.053-.176-.053-.176-.056-.175-.056-.175-.058-.174-.058-.174-.06-.174-.06-.173-.062-.173-.062-.172-.064-.172-.064-.17-.066-.171-.067-.17-.068-.17-.068-.169-.07-.169-.07-.167-.072-.167-.073-.168-.074-.166-.074-.166-.075-.165-.078-.165-.077-.164-.078-.163-.08-.164-.08-.162-.081-.163-.083-.16-.083-.162-.084-.16-.086-.16-.086-.159-.087-.159-.088-.157-.089-.158-.09-.156-.09-.156-.092-.156-.093-.155-.093-.154-.095-.154-.094-.153-.097-.152-.098-.152-.097-.152-.099-.15-.1-.15-.1-.149-.102-.15-.103-.147-.102-.147-.105-.147-.105-.146-.106-.146-.106-.144-.108-.145-.108-.143-.11-.142-.11-.143-.11-.141-.112-.14-.113-.14-.113-.14-.114-.138-.116-.138-.116-.137-.116-.136-.118-.136-.118-.136-.119-.134-.12-.133-.12-.133-.122-.132-.122-.132-.123-.13-.124-.13-.125-.13-.125-.127-.126-.128-.126-.127-.128-.126-.129-.125-.129-.125-.13-.124-.13-.123-.132-.122-.132-.121-.133-.121-.133-.12-.134-.12-.136-.117-.136-.118-.136-.116-.137-.116-.138-.116-.138-.114-.14-.113-.14-.112-.14-.112-.141-.111-.143-.11-.142-.11-.143-.108-.145-.107-.144-.107-.146-.106-.146-.105-.146-.104-.148-.103-.147-.103-.15-.102-.148-.1-.15-.1-.151-.099-.152-.097-.151-.098-.153-.096-.153-.095-.154-.095-.154-.093-.155-.093-.156-.091-.155-.092-.157-.09-.158-.088-.157-.088-.159-.087-.16-.086-.16-.086-.159-.084-.162-.083-.16-.083-.163-.081-.162-.08-.163-.08-.164-.078-.164-.077-.165-.078-.165-.075-.166-.074-.166-.074-.168-.073-.166-.072-.168-.07-.17-.07-.168-.068-.17L2.08 41l-.066-.17-.067-.171-.064-.172-.064-.172-.062-.173-.062-.173-.06-.174-.06-.174-.058-.174-.058-.174-.056-.176-.056-.176-.053-.176-.053-.177-.053-.177-.051-.178-.05-.178-.049-.179-.047-.179-.047-.18-.046-.18-.045-.18-.043-.181-.043-.181-.04-.182-.042-.182-.038-.182-.039-.183-.036-.183-.036-.184-.035-.184-.033-.184-.033-.185-.031-.186-.03-.186-.03-.186-.028-.186-.026-.186-.026-.187-.024-.188-.023-.188-.023-.189-.02-.188-.02-.189-.019-.189-.017-.19-.016-.19-.016-.19-.014-.19-.012-.192-.011-.191-.011-.191-.01-.192-.007-.193-.007-.192-.005-.193-.005-.193-.003-.194-.001-.193L0 30l.001-.194.001-.193.003-.194.005-.193.005-.193.007-.192.007-.193.01-.192.01-.19.012-.192.012-.191.014-.191.016-.19.016-.19.017-.19.019-.19.02-.188.02-.188.023-.189.023-.188.024-.188.026-.187.026-.186.029-.186.028-.186.03-.186.032-.185.033-.186.033-.184.035-.184.036-.184.036-.183.039-.183.038-.182.041-.182.04-.182.044-.18.043-.182.045-.18.046-.18.047-.18.047-.179.05-.179.049-.178.05-.178.054-.177.053-.177.053-.176.056-.176.056-.175.058-.175.058-.174.06-.174.06-.174.062-.173.062-.173.064-.172.064-.172.067-.17L2.08 19l.068-.17.068-.17.07-.169.07-.169.072-.167.073-.167.074-.168.074-.166.075-.166.078-.165.077-.165.078-.164.08-.163.08-.164.081-.162.083-.163.083-.16.084-.162.086-.16.086-.16.087-.159.088-.159.089-.157.09-.158.09-.156.092-.156.093-.156.093-.155.095-.154.095-.154.096-.153.098-.152.097-.152.1-.152.099-.15.1-.15.102-.149.103-.15.103-.147.104-.147.105-.147.106-.146.107-.146.107-.144.108-.145.11-.143.11-.142.11-.143.113-.141.112-.14.113-.14.114-.14.116-.138.116-.138.116-.137.118-.136.118-.136.119-.136.12-.134.12-.133.122-.133.122-.132.123-.132.124-.13.125-.13.125-.13.126-.127.127-.128.128-.127.128-.126.129-.125.13-.125.13-.124.132-.123.132-.122.133-.121.133-.121.134-.12.136-.12.136-.117.136-.118.137-.116.138-.116.138-.116.14-.114.14-.113.14-.112.141-.112.143-.111.142-.11.143-.11.145-.108.144-.107.146-.107.146-.106.147-.105.147-.104.147-.103.15-.103.149-.102.15-.1.15-.1.152-.099.152-.097.152-.098.153-.096.154-.095.154-.095.155-.093.156-.093.155-.091.157-.092.158-.09.157-.088.159-.088.16-.087.16-.086.159-.086.162-.084.16-.083.163-.083.162-.081.163-.08.164-.08.164-.078.165-.077.165-.078.166-.075.166-.074.168-.074.167-.073.167-.072.17-.07.168-.07.17-.068.17-.068.17-.066.171-.067.172-.064.172-.064.173-.062.173-.062.174-.06.174-.06.174-.058.174-.058.176-.056.176-.056.176-.053.177-.053.177-.053.178-.051.178-.05.18-.049.178-.047.18-.047.18-.046.18-.045.181-.043.181-.043.182-.04.182-.042.182-.038.183-.039.183-.036.184-.036.184-.035.184-.033.186-.033.185-.031.186-.03.186-.03.186-.028.186-.026.187-.026.188-.024.189-.023.188-.023.188-.02.189-.02.19-.019.188-.017.19-.016.19-.016.192-.014.19-.012.192-.011.191-.011.192-.01.193-.007.192-.007.193-.005.193-.005.194-.003.193-.001L30 0l.194.001zm-.375 2.034h-.181l-.18.004-.181.004-.18.005-.179.006-.18.007-.179.01-.179.009-.178.01-.178.013-.178.012-.177.014-.178.016-.177.016-.176.017-.176.019-.175.019-.177.021-.174.022-.175.022-.174.024-.175.025-.173.026-.174.028-.173.027-.173.03-.172.03-.171.03-.172.033-.171.034-.17.034-.172.036-.17.036-.17.037-.168.039-.17.04-.168.04-.168.042-.168.043-.166.043-.168.044-.166.046-.166.047-.165.047-.166.05-.165.048-.164.05-.163.053-.164.052-.163.053-.163.055-.162.055-.162.056-.16.058-.161.058-.16.06-.16.06-.16.061-.159.062-.159.063-.157.064-.158.065-.156.066-.157.067-.157.068-.155.068-.155.07-.154.07-.155.071-.154.073-.152.073-.153.074-.152.074-.152.077-.15.076-.15.078-.15.078-.15.08-.15.08-.147.081-.148.082-.146.083-.148.084-.145.084-.146.086-.145.086-.145.087-.144.089-.142.088-.144.09-.142.09-.142.092-.14.092-.14.093-.14.093-.14.096-.138.095-.138.096-.138.098-.136.098-.136.098-.137.1-.134.1-.134.101-.134.102-.133.103-.133.103-.132.104-.131.105-.13.106-.13.106-.13.108-.128.108-.128.109-.127.109-.126.11-.126.111-.125.112-.125.113-.124.113-.123.114-.122.115-.123.116-.12.116-.122.117-.119.116-.119.12-.118.118-.117.12-.117.12-.116.121-.116.123-.115.122-.114.123-.113.124-.113.125-.112.125-.11.126-.111.126-.11.127-.108.128-.108.128-.108.13-.106.13-.106.13-.105.131-.104.132-.103.133-.103.133-.102.134-.102.134-.1.134-.099.137-.098.136-.098.136-.098.138-.096.138-.095.138-.096.14-.093.14-.093.14-.092.14-.092.142-.09.142-.09.144-.088.142-.089.144-.087.145-.086.145-.086.146-.084.145-.084.148-.083.146-.082.148-.08.148-.081.15-.08.149-.078.15-.078.15-.076.15-.077.152-.074.152-.074.153-.073.152-.073.154-.07.155-.072.154-.07.155-.067.155-.068.157-.067.157-.066.156-.065.158-.064.157-.063.16-.062.158-.06.16-.062.16-.059.16-.058.16-.058.161-.056.162-.055.163-.055.162-.053.163-.052.164-.052.163-.051.164-.049.165-.049.166-.047.165-.047.166-.046.166-.044.168-.043.166-.043.168-.042.168-.04.169-.04.169-.039.169-.037.17-.036.17-.036.17-.034.17-.034.172-.032.172-.03.171-.031.172-.03.173-.027.173-.028.174-.026.173-.025.175-.024.174-.022.175-.022.174-.021.177-.02.175-.018.176-.017.176-.016.177-.016.178-.014.177-.012.178-.012.178-.011.178-.01.179-.009.179-.007.18-.006.179-.005.18-.004.181-.003.18-.001.181-.001.181v.181l.002.181.003.18.004.181.005.18.006.18.007.18.01.178.009.179.01.178.013.178.012.178.014.177.016.178.016.177.017.176.019.176.019.176.021.175.022.175.022.175.024.174.025.175.026.173.028.174.027.173.03.173.03.172.03.171.033.172.034.171.034.171.036.17.036.17.037.17.039.17.04.168.04.169.042.168.043.167.043.167.044.168.046.166.047.166.047.165.05.166.048.165.05.164.053.163.052.164.053.163.054.162.056.163.056.162.058.16.058.161.06.161.06.16.061.16.062.158.063.159.064.157.065.158.066.156.067.157.068.157.068.155.07.155.07.154.071.155.073.154.073.152.074.153.074.152.077.152.076.15.078.15.078.15.08.15.08.15.081.147.082.148.083.147.084.147.084.145.086.146.086.145.087.145.089.144.088.142.09.144.09.142.092.142.092.14.093.14.093.14.096.14.095.138.096.139.098.137.098.136.098.136.1.137.1.134.101.134.102.134.103.134.103.132.104.132.105.131.106.13.106.13.108.13.108.128.109.128.109.127.11.126.111.126.112.125.113.125.113.125.114.123.115.122.116.122.116.12.117.122.117.119.118.119.12.119.118.117.121.116.121.116.123.116.122.115.123.114.124.113.125.113.125.112.126.11.126.11.127.11.128.11.128.107.13.108.13.106.13.106.131.105.132.104.133.103.133.103.134.102.134.102.134.1.137.099.136.099.136.097.138.098.138.096.138.095.14.096.14.093.14.093.14.092.142.092.142.09.144.09.142.088.144.089.145.087.145.086.146.086.145.084.148.084.146.083.148.082.148.08.15.081.149.08.15.078.15.078.15.076.152.077.152.074.153.074.152.073.154.073.155.07.154.072.155.07.155.067.157.068.157.068.156.065.158.065.157.064.16.063.158.062.16.06.16.062.16.059.16.058.161.058.162.056.163.055.162.055.163.053.164.052.163.052.164.051.165.049.166.049.165.048.166.046.166.046.168.044.166.044.168.042.168.042.169.04.169.04.169.039.17.038.17.035.17.036.17.034.172.034.172.032.171.03.172.031.173.03.173.027.174.028.173.026.175.025.174.024.175.022.174.022.177.021.175.02.176.018.176.017.177.016.178.016.177.014.178.012.178.012.178.011.179.01.179.009.18.007.179.006.18.005.181.004.18.003.181.001.181.001h.181l.181-.002.18-.003.181-.004.18-.005.18-.006.18-.007.178-.01.179-.009.178-.01.178-.013.178-.012.177-.014.178-.016.177-.016.176-.017.176-.019.176-.019.175-.021.175-.022.175-.022.174-.024.175-.025.173-.026.174-.028.173-.027.173-.03.172-.03.171-.03.172-.033.171-.034.171-.034.17-.036.17-.035.17-.038.17-.039.168-.04.169-.04.168-.042.167-.042.167-.044.168-.044.166-.046.166-.046.165-.048.166-.05.165-.048.164-.05.163-.053.164-.051.163-.054.162-.055.163-.055.162-.056.16-.058.161-.058.161-.06.16-.06.16-.061.158-.062.159-.063.157-.064.158-.065.157-.066.156-.067.157-.068.155-.068.155-.069.154-.071.155-.071.154-.073.152-.073.153-.074.152-.074.152-.077.15-.076.15-.078.15-.078.15-.08.15-.08.147-.081.148-.082.147-.083.147-.084.146-.084.145-.086.145-.086.145-.087.144-.089.142-.088.144-.09.142-.09.142-.092.14-.092.14-.093.14-.093.14-.096.138-.095.139-.096.137-.098.136-.098.136-.098.137-.1.134-.1.134-.101.134-.102.134-.102.132-.104.132-.104.131-.105.13-.105.13-.107.13-.108.128-.108.128-.109.127-.11.126-.11.126-.11.125-.112.125-.113.125-.113.123-.114.122-.115.122-.116.12-.116.122-.116.119-.117.119-.12.119-.118.117-.12.116-.12.116-.121.116-.122.115-.122.114-.123.113-.125.113-.125.112-.125.11-.126.11-.126.11-.127.11-.128.107-.128.108-.13.106-.13.106-.13.105-.131.104-.132.103-.132.103-.134.102-.134.102-.134.1-.134.099-.137.099-.136.097-.136.098-.137.096-.139.095-.138.096-.14.093-.14.093-.14.092-.14.092-.142.09-.142.09-.144.088-.142.089-.144.087-.145.086-.145.086-.146.084-.145.084-.147.083-.147.082-.148.08-.148.081-.15.08-.149.078-.15.078-.15.076-.15.077-.152.074-.152.074-.153.073-.152.073-.154.07-.155.072-.154.07-.155.067-.155.068-.157.068-.157.065-.156.065-.158.064-.157.063-.16.062-.158.06-.16.062-.159.059-.16.058-.161.058-.161.056-.162.055-.163.055-.162.053-.163.052-.164.052-.163.051-.164.049-.165.049-.166.048-.165.046-.166.046-.166.044-.168.044-.166.042-.168.042-.168.04-.169.04-.169.039-.169.038-.17.035-.17.036-.17.034-.17.034-.172.032-.172.03-.171.031-.172.03-.173.027-.173.028-.174.026-.173.025-.175.024-.174.022-.175.022-.175.021-.175.02-.176.018-.176.017-.176.016-.177.016-.178.014-.177.012-.178.012-.178.011-.178.01-.179.009-.179.007-.18.006-.179.005-.18.004-.18.003-.18.001-.182.001-.181v-.181l-.002-.181-.003-.18-.004-.181-.005-.18-.006-.179-.007-.18-.01-.179-.009-.179-.01-.178-.013-.178-.012-.178-.014-.177-.016-.178-.016-.177-.017-.176-.019-.176-.019-.175-.021-.177-.022-.174-.022-.175-.024-.174-.025-.175-.026-.173-.028-.174-.027-.173-.03-.173-.03-.172-.03-.171-.033-.172-.034-.171-.034-.17-.036-.172-.035-.17-.038-.17-.039-.168-.04-.17-.04-.168-.042-.168-.042-.168-.044-.166-.044-.168-.046-.166-.046-.166-.048-.165-.05-.166-.048-.165-.05-.164-.053-.163-.051-.164-.054-.163-.055-.163-.055-.162-.056-.162-.058-.16-.058-.161-.06-.16-.06-.16-.061-.16-.062-.159-.063-.159-.064-.157-.065-.158-.065-.156-.068-.157-.068-.157-.068-.155-.069-.155-.071-.154-.071-.155-.073-.154-.073-.152-.074-.153-.074-.152-.077-.152-.076-.15-.078-.15-.078-.15-.08-.15-.08-.15-.081-.147-.082-.148-.083-.146-.084-.148-.084-.145-.086-.146-.086-.145-.087-.145-.089-.144-.088-.142-.09-.144-.09-.142-.092-.142-.092-.14-.093-.14-.093-.14-.096-.14-.095-.138-.096-.138-.098-.138-.098-.136-.098-.136-.1-.137-.1-.134-.101-.134-.102-.134-.102-.133-.104-.133-.104-.132-.105-.131-.105-.13-.107-.13-.108-.13-.108-.128-.109-.128-.11-.127-.11-.126-.11-.126-.112-.125-.113-.125-.113-.124-.114-.123-.115-.122-.116-.123-.116-.12-.116-.122-.117-.119-.12-.119-.118-.119-.12-.117-.12-.116-.121-.116-.122-.116-.122-.115-.123-.114-.125-.113-.125-.113-.125-.112-.126-.11-.126-.111-.127-.11-.128-.108-.128-.108-.13-.108-.13-.106-.13-.106-.131-.105-.132-.104-.132-.103-.134-.103-.134-.102-.134-.102-.134-.1-.137-.099-.136-.098-.136-.098-.137-.098L45.912 7l-.138-.095-.14-.096-.14-.093-.14-.093-.14-.092-.142-.092-.142-.09-.144-.09-.142-.088-.144-.089-.145-.087-.145-.086-.145-.086-.146-.084-.147-.084-.147-.083-.148-.082-.148-.08-.15-.081-.149-.08-.15-.078-.15-.078-.15-.076-.152-.077-.152-.074-.153-.074-.152-.073-.154-.073-.155-.07-.154-.072-.155-.07-.155-.067-.157-.068-.156-.067-.157-.066-.158-.065-.157-.064-.16-.063-.158-.062-.16-.06-.159-.062-.16-.059-.161-.058-.161-.058-.162-.056-.163-.056-.162-.054-.163-.053-.164-.052-.163-.052-.164-.051-.165-.049-.166-.049-.165-.047-.166-.047-.166-.046-.168-.044-.166-.043-.168-.043-.168-.042-.169-.04-.169-.04-.169-.039-.17-.037-.17-.036-.17-.036-.17-.034-.172-.034-.172-.032-.171-.03-.172-.031-.173-.03-.173-.027-.174-.028-.173-.026-.175-.025-.174-.024-.175-.022-.175-.022-.175-.021-.176-.02-.176-.018-.176-.017-.177-.016-.178-.016-.177-.014-.178-.012-.178-.012-.178-.011-.179-.01-.179-.009-.18-.007-.179-.006-.18-.005-.18-.004-.18-.003-.182-.001L30 2.034h-.181z"/><path d="M30 40c-1.057 0-2.087-.082-3.086-.228-.684.833-3.628 3.704-6.753 4.216.004-.013-.161.012-.255.012a.905.905 0 01-.832-1.264h-.002C19.661 41.723 21 39.793 21 38c0-.029.008-.047.008-.074C16.779 35.766 14 32.127 14 28c0-6.627 7.163-12 16-12 8.836 0 16 5.373 16 12s-7.164 12-16 12zm0-22c-7.72 0-14 4.486-14 10 0 3.207 2.212 6.252 5.918 8.145a2 2 0 011.081 1.965c-.02 1.034-.326 2.038-.716 2.932 1.44-.856 2.657-2.018 3.085-2.539a2 2 0 011.836-.71A19.29 19.29 0 0030 38c7.72 0 14-4.486 14-10s-6.28-10-14-10zm0 4c-5.327 0-10 2.804-10 6a.5.5 0 01-1 0c0-3.794 5.037-7 11-7a.5.5 0 010 1z"/></g><defs><clipPath id="clip0"><path fill="#fff" d="M0 0h60v60H0z"/></clipPath></defs></svg>