<svg xmlns="http://www.w3.org/2000/svg" viewBox="0 0 500 500" shape-rendering="geometricPrecision" text-rendering="geometricPrecision" image-rendering="optimizeQuality" fill-rule="evenodd" clip-rule="evenodd" width="12px" height="12px"><path d="M349 179L461 68c49 49 1 177-107 286C245 462 117 510 68 461l111-112c22 22 45 0 107-63 63-62 85-85 63-107zM103 309l-76 76c-9 9-9 25 0 35l27 27 112-112-27-26c-10-10-26-10-36 0zM385 27l-76 76c-10 10-10 26 0 36l26 27L447 54l-27-27c-10-9-26-9-35 0z" fill="#efd7d9"/></svg>